{
    "asset" : {
        "generator" : "Khronos glTF Blender I/O v3.2.40",
        "version" : "2.0"
    },
    "scene" : 0,
    "scenes" : [
        {
            "name" : "Scene",
            "nodes" : [
                0,
                1,
                2
            ]
        }
    ],
    "nodes" : [
        {
            "mesh" : 0,
            "name" : "Cube",
            "translation" : [
                0.03498125076293945,
                0.026491129770874977,
                -0.04876640811562538
            ]
        },
        {
            "mesh" : 1,
            "name" : "Cylinder",
            "rotation" : [
                0,
                -0.7071068286895752,
                -0.7071068286895752,
                0
            ],
            "scale" : [
                -0.08206845074892044,
                -5.9657158851623535,
                -0.07184983789920807
            ],
            "translation" : [
                0,
                0,
                11.772574424743652
            ]
        },
        {
            "mesh" : 2,
            "name" : "Plane",
            "scale" : [
                0.46516239643096924,
                0.07915802299976349,
                0.3317265510559082
            ],
            "translation" : [
                0.15524250268936157,
                -0.09626711905002594,
                11.760738372802734
            ]
        }
    ],
    "materials" : [
        {
            "doubleSided" : true,
            "name" : "Material",
            "pbrMetallicRoughness" : {
                "baseColorFactor" : [
                    0.800000011920929,
                    0.800000011920929,
                    0.800000011920929,
                    1
                ],
                "metallicFactor" : 0,
                "roughnessFactor" : 0.4000000059604645
            }
        }
    ],
    "meshes" : [
        {
            "name" : "Cube",
            "primitives" : [
                {
                    "attributes" : {
                        "POSITION" : 0,
                        "NORMAL" : 1,
                        "TEXCOORD_0" : 2
                    },
                    "indices" : 3,
                    "material" : 0
                }
            ]
        },
        {
            "name" : "Cylinder",
            "primitives" : [
                {
                    "attributes" : {
                        "POSITION" : 4,
                        "NORMAL" : 5,
                        "TEXCOORD_0" : 6
                    },
                    "indices" : 7
                }
            ]
        },
        {
            "name" : "Plane",
            "primitives" : [
                {
                    "attributes" : {
                        "POSITION" : 8,
                        "NORMAL" : 9,
                        "TEXCOORD_0" : 10
                    },
                    "indices" : 11
                }
            ]
        }
    ],
    "accessors" : [
        {
            "bufferView" : 0,
            "componentType" : 5126,
            "count" : 38,
            "max" : [
                1,
                0.06003677845001221,
                1
            ],
            "min" : [
                -1,
                -0.19548392295837402,
                -1
            ],
            "type" : "VEC3"
        },
        {
            "bufferView" : 1,
            "componentType" : 5126,
            "count" : 38,
            "type" : "VEC3"
        },
        {
            "bufferView" : 2,
            "componentType" : 5126,
            "count" : 38,
            "type" : "VEC2"
        },
        {
            "bufferView" : 3,
            "componentType" : 5123,
            "count" : 60,
            "type" : "SCALAR"
        },
        {
            "bufferView" : 4,
            "componentType" : 5126,
            "count" : 192,
            "max" : [
                1,
                2.000002861022949,
                1
            ],
            "min" : [
                -1,
                2.86102294921875e-06,
                -1
            ],
            "type" : "VEC3"
        },
        {
            "bufferView" : 5,
            "componentType" : 5126,
            "count" : 192,
            "type" : "VEC3"
        },
        {
            "bufferView" : 6,
            "componentType" : 5126,
            "count" : 192,
            "type" : "VEC2"
        },
        {
            "bufferView" : 7,
            "componentType" : 5123,
            "count" : 372,
            "type" : "SCALAR"
        },
        {
            "bufferView" : 8,
            "componentType" : 5126,
            "count" : 8,
            "max" : [
                0.699999988079071,
                0.20000000298023224,
                1
            ],
            "min" : [
                -0.7000000476837158,
                -0.20000000298023224,
                -1
            ],
            "type" : "VEC3"
        },
        {
            "bufferView" : 9,
            "componentType" : 5126,
            "count" : 8,
            "type" : "VEC3"
        },
        {
            "bufferView" : 10,
            "componentType" : 5126,
            "count" : 8,
            "type" : "VEC2"
        },
        {
            "bufferView" : 11,
            "componentType" : 5123,
            "count" : 12,
            "type" : "SCALAR"
        }
    ],
    "bufferViews" : [
        {
            "buffer" : 0,
            "byteLength" : 456,
            "byteOffset" : 0
        },
        {
            "buffer" : 0,
            "byteLength" : 456,
            "byteOffset" : 456
        },
        {
            "buffer" : 0,
            "byteLength" : 304,
            "byteOffset" : 912
        },
        {
            "buffer" : 0,
            "byteLength" : 120,
            "byteOffset" : 1216
        },
        {
            "buffer" : 0,
            "byteLength" : 2304,
            "byteOffset" : 1336
        },
        {
            "buffer" : 0,
            "byteLength" : 2304,
            "byteOffset" : 3640
        },
        {
            "buffer" : 0,
            "byteLength" : 1536,
            "byteOffset" : 5944
        },
        {
            "buffer" : 0,
            "byteLength" : 744,
            "byteOffset" : 7480
        },
        {
            "buffer" : 0,
            "byteLength" : 96,
            "byteOffset" : 8224
        },
        {
            "buffer" : 0,
            "byteLength" : 96,
            "byteOffset" : 8320
        },
        {
            "buffer" : 0,
            "byteLength" : 64,
            "byteOffset" : 8416
        },
        {
            "buffer" : 0,
            "byteLength" : 24,
            "byteOffset" : 8480
        }
    ],
    "buffers" : [
        {
            "byteLength" : 8504,
            "uri" : "data:application/octet-stream;base64,"
        }
    ]
}
